<svg xmlns="http://www.w3.org/2000/svg" width="805" height="600"><rect width="805" height="600" x="0" y="0" fill="#FFFFFF" id="background"/><g transform="translate(10,10)" id="viz"><g><rect x="0" y="0" height="3.1016452169965243" width="10" fill="black"><title>Animation: 2014</title></rect><rect x="775" y="109.91346395946047" height="65.16073027623654" width="10" fill="black"><title>Ended: 42311</title></rect><rect x="0" y="380.82762526464194" height="77.60119207509365" width="10" fill="black"><title>Comedy: 50389</title></rect><rect x="775" y="192.83609641314584" height="114.85943573685958" width="10" fill="black"><title>Renewed: 74582</title></rect><rect x="775" y="325.4574343274542" height="136.612533398268" width="10" fill="black"><title>Pending: 88707</title></rect><rect x="775" y="479.831869903171" height="9.31263586255119" width="10" fill="black"><title>NA: 6047</title></rect><rect x="775" y="506.9064079431711" height="12.418901206484634" width="10" fill="black"><title>Ongoing: 8064</title></rect><rect x="0" y="102.64219131700565" height="43.469234307320846" width="10" fill="black"><title>Docu-Series: 28226</title></rect><rect x="0" y="500.1636123401879" height="55.86349483680851" width="10" fill="black"><title>Drama: 36274</title></rect><rect x="0" y="233.550650516818" height="99.33580922875399" width="10" fill="black"><title>Family Animation: 64502</title></rect><rect x="0" y="206.47611247681797" height="9.31263586255119" width="10" fill="black"><title>Family Live Action: 6047</title></rect><rect x="0" y="163.8733278017753" height="24.84088249759384" width="10" fill="black"><title>Foreign Language: 16130</title></rect><rect x="0" y="350.6483619230208" height="12.417361164172348" width="10" fill="black"><title>Marvel: 8063</title></rect><rect x="0" y="476.19071951718445" height="6.210990645554659" width="10" fill="black"><title>Reality: 4033</title></rect><rect x="0" y="573.7890093544453" height="6.210990645554716" width="10" fill="black"><title>Talk Show: 4033</title></rect></g><g class="links" fill="none" stroke-opacity="1"><path d="M10,1.5508226084982621C392.5,1.5508226084982621,392.5,111.46428656795874,775,111.46428656795874" stroke="#1f77b4" style="stroke-width: 3.10165; mix-blend-mode: multiply;"><title>Animation → Ended: 2014</title></path><path d="M10,407.2085500745478C392.5,407.2085500745478,392.5,262.6831754457481,775,262.6831754457481" stroke="#ff7f0e" style="stroke-width: 34.1458; mix-blend-mode: multiply;"><title>Comedy → Renewed: 22172</title></path><path d="M10,385.481633132449C392.5,385.481633132449,392.5,151.8056949389737,775,151.8056949389737" stroke="#ff7f0e" style="stroke-width: 9.30802; mix-blend-mode: multiply;"><title>Comedy → Ended: 6044</title></path><path d="M10,436.69882031301194C392.5,436.69882031301194,392.5,437.23524539737747,775,437.23524539737747" stroke="#ff7f0e" style="stroke-width: 24.8347; mix-blend-mode: multiply;"><title>Comedy → Pending: 16126</title></path><path d="M10,452.2201367576493C392.5,452.2201367576493,392.5,482.9358251836361,775,482.9358251836361" stroke="#ff7f0e" style="stroke-width: 6.20791; mix-blend-mode: multiply;"><title>Comedy → NA: 4031</title></path><path d="M10,456.8764546889248C392.5,456.8764546889248,392.5,511.5634958956027,775,511.5634958956027" stroke="#ff7f0e" style="stroke-width: 3.10473; mix-blend-mode: multiply;"><title>Comedy → Ongoing: 2016</title></path><path d="M10,130.58548905275225C392.5,130.58548905275225,392.5,340.9833708990285,775,340.9833708990285" stroke="#2ca02c" style="stroke-width: 31.0519; mix-blend-mode: multiply;"><title>Docu-Series → Pending: 20163</title></path><path d="M10,111.95559720071294C392.5,111.95559720071294,392.5,195.94005169361083,775,195.94005169361083" stroke="#2ca02c" style="stroke-width: 6.20791; mix-blend-mode: multiply;"><title>Docu-Series → Renewed: 4031</title></path><path d="M10,105.74691661862684C392.5,105.74691661862684,392.5,116.11983447807818,775,116.11983447807818" stroke="#2ca02c" style="stroke-width: 6.20945; mix-blend-mode: multiply;"><title>Docu-Series → Ended: 4032</title></path><path d="M10,546.7144713144453C392.5,546.7144713144453,392.5,455.86051712247973,775,455.86051712247973" stroke="#d62728" style="stroke-width: 6.20637; mix-blend-mode: multiply;"><title>Drama → Pending: 4030</title></path><path d="M10,509.470858054646C392.5,509.470858054646,392.5,165.76694852123893,775,165.76694852123893" stroke="#d62728" style="stroke-width: 18.6145; mix-blend-mode: multiply;"><title>Drama → Ended: 12087</title></path><path d="M10,531.1946949121202C392.5,531.1946949121202,392.5,295.27894100698944,775,295.27894100698944" stroke="#d62728" style="stroke-width: 24.8332; mix-blend-mode: multiply;"><title>Drama → Renewed: 16125</title></path><path d="M10,554.4747445261858C392.5,554.4747445261858,392.5,514.6682211972238,775,514.6682211972238" stroke="#d62728" style="stroke-width: 3.10473; mix-blend-mode: multiply;"><title>Drama → Ongoing: 2016</title></path><path d="M10,551.3700192245647C392.5,551.3700192245647,392.5,487.59214311491155,775,487.59214311491155" stroke="#d62728" style="stroke-width: 3.10473; mix-blend-mode: multiply;"><title>Drama → NA: 2016</title></path><path d="M10,301.83920672936046C392.5,301.83920672936046,392.5,393.76909117468136,775,393.76909117468136" stroke="#9467bd" style="stroke-width: 55.8851; mix-blend-mode: multiply;"><title>Family Animation → Pending: 36288</title></path><path d="M10,244.41025888208665C392.5,244.41025888208665,392.5,136.29207870589795,775,136.29207870589795" stroke="#9467bd" style="stroke-width: 21.7192; mix-blend-mode: multiply;"><title>Family Animation → Ended: 14103</title></path><path d="M10,264.5832731310626C392.5,264.5832731310626,392.5,226.98576466751007,775,226.98576466751007" stroke="#9467bd" style="stroke-width: 18.6268; mix-blend-mode: multiply;"><title>Family Animation → Renewed: 12095</title></path><path d="M10,331.3340970947614C392.5,331.3340970947614,392.5,508.4587705939816,775,508.4587705939816" stroke="#9467bd" style="stroke-width: 3.10473; mix-blend-mode: multiply;"><title>Family Animation → Ongoing: 2016</title></path><path d="M10,208.02770510647238C392.5,208.02770510647238,392.5,123.8808777109749,775,123.8808777109749" stroke="#8c564b" style="stroke-width: 3.10319; mix-blend-mode: multiply;"><title>Family Live Action → Ended: 2015</title></path><path d="M10,211.1308903657812C392.5,211.1308903657812,392.5,216.12076615414844,775,216.12076615414844" stroke="#8c564b" style="stroke-width: 3.10319; mix-blend-mode: multiply;"><title>Family Live Action → Renewed: 2015</title></path><path d="M10,214.23561566740233C392.5,214.23561566740233,392.5,364.2734307881242,775,364.2734307881242" stroke="#8c564b" style="stroke-width: 3.10627; mix-blend-mode: multiply;"><title>Family Live Action → Pending: 2017</title></path><path d="M10,174.74063637860553C392.5,174.74063637860553,392.5,206.80659024928488,775,206.80659024928488" stroke="#e377c2" style="stroke-width: 15.5252; mix-blend-mode: multiply;"><title>Foreign Language → Renewed: 10081</title></path><path d="M10,165.42569045258588C392.5,165.42569045258588,392.5,120.77692243050987,775,120.77692243050987" stroke="#e377c2" style="stroke-width: 3.10473; mix-blend-mode: multiply;"><title>Foreign Language → Ended: 2016</title></path><path d="M10,185.60871497659195C392.5,185.60871497659195,392.5,359.6148027933801,775,359.6148027933801" stroke="#e377c2" style="stroke-width: 6.21099; mix-blend-mode: multiply;"><title>Foreign Language → Pending: 4033</title></path><path d="M10,355.30390983314015C392.5,355.30390983314015,392.5,240.95471846133685,775,240.95471846133685" stroke="#7f7f7f" style="stroke-width: 9.3111; mix-blend-mode: multiply;"><title>Marvel → Renewed: 6046</title></path><path d="M10,361.51259041522644C392.5,361.51259041522644,392.5,423.2647515612385,775,423.2647515612385" stroke="#7f7f7f" style="stroke-width: 3.10627; mix-blend-mode: multiply;"><title>Marvel → Pending: 2017</title></path><path d="M10,480.8493475119284C392.5,480.8493475119284,392.5,451.2049692123603,775,451.2049692123603" stroke="#bcbd22" style="stroke-width: 3.10473; mix-blend-mode: multiply;"><title>Reality → Pending: 2016</title></path><path d="M10,477.7438521891512C392.5,477.7438521891512,392.5,281.3092171920067,775,281.3092171920067" stroke="#bcbd22" style="stroke-width: 3.10627; mix-blend-mode: multiply;"><title>Reality → Renewed: 2017</title></path><path d="M10,578.4476373491892C392.5,578.4476373491892,392.5,517.772946498845,775,517.772946498845" stroke="#17becf" style="stroke-width: 3.10473; mix-blend-mode: multiply;"><title>Talk Show → Ongoing: 2016</title></path><path d="M10,575.342142026412C392.5,575.342142026412,392.5,460.5168350537553,775,460.5168350537553" stroke="#17becf" style="stroke-width: 3.10627; mix-blend-mode: multiply;"><title>Talk Show → Pending: 2017</title></path></g><g><text x="14" y="1.5508226084982621" text-anchor="start"><tspan alignment-baseline="middle" style="font-family: Arial, sans-serif; font-size: 10px; fill: black; font-weight: bold;">Animation</tspan></text><text x="771" y="142.49382909757873" text-anchor="end"><tspan alignment-baseline="middle" style="font-family: Arial, sans-serif; font-size: 10px; fill: black; font-weight: bold;">Ended</tspan></text><text x="14" y="419.62822130218876" text-anchor="start"><tspan alignment-baseline="middle" style="font-family: Arial, sans-serif; font-size: 10px; fill: black; font-weight: bold;">Comedy</tspan></text><text x="771" y="250.26581428157562" text-anchor="end"><tspan alignment-baseline="middle" style="font-family: Arial, sans-serif; font-size: 10px; fill: black; font-weight: bold;">Renewed</tspan></text><text x="771" y="393.76370102658825" text-anchor="end"><tspan alignment-baseline="middle" style="font-family: Arial, sans-serif; font-size: 10px; fill: black; font-weight: bold;">Pending</tspan></text><text x="771" y="484.48818783444665" text-anchor="end"><tspan alignment-baseline="middle" style="font-family: Arial, sans-serif; font-size: 10px; fill: black; font-weight: bold;">NA</tspan></text><text x="771" y="513.1158585464134" text-anchor="end"><tspan alignment-baseline="middle" style="font-family: Arial, sans-serif; font-size: 10px; fill: black; font-weight: bold;">Ongoing</tspan></text><text x="14" y="124.37680847066608" text-anchor="start"><tspan alignment-baseline="middle" style="font-family: Arial, sans-serif; font-size: 10px; fill: black; font-weight: bold;">Docu-Series</tspan></text><text x="14" y="528.0953597585922" text-anchor="start"><tspan alignment-baseline="middle" style="font-family: Arial, sans-serif; font-size: 10px; fill: black; font-weight: bold;">Drama</tspan></text><text x="14" y="283.218555131195" text-anchor="start"><tspan alignment-baseline="middle" style="font-family: Arial, sans-serif; font-size: 10px; fill: black; font-weight: bold;">Family Animation</tspan></text><text x="14" y="211.13243040809357" text-anchor="start"><tspan alignment-baseline="middle" style="font-family: Arial, sans-serif; font-size: 10px; fill: black; font-weight: bold;">Family Live Action</tspan></text><text x="14" y="176.29376905057222" text-anchor="start"><tspan alignment-baseline="middle" style="font-family: Arial, sans-serif; font-size: 10px; fill: black; font-weight: bold;">Foreign Language</tspan></text><text x="14" y="356.85704250510696" text-anchor="start"><tspan alignment-baseline="middle" style="font-family: Arial, sans-serif; font-size: 10px; fill: black; font-weight: bold;">Marvel</tspan></text><text x="14" y="479.29621483996175" text-anchor="start"><tspan alignment-baseline="middle" style="font-family: Arial, sans-serif; font-size: 10px; fill: black; font-weight: bold;">Reality</tspan></text><text x="14" y="576.8945046772226" text-anchor="start"><tspan alignment-baseline="middle" style="font-family: Arial, sans-serif; font-size: 10px; fill: black; font-weight: bold;">Talk Show</tspan></text></g></g></svg>